<svg width="43" height="43" viewBox="0 0 43 43" fill="none" xmlns="http://www.w3.org/2000/svg">
<path d="M21.3967 0L33.7048 12.3081C38.6201 17.2235 38.3462 25.2734 33.2001 29.9468C29.4218 33.3781 25.2246 37.2754 22 40.5C21.2997 41.2003 21.3967 42.7933 21.3967 42.7933L8.71694 30.1136C3.94116 25.3378 4.04519 17.566 8.99909 12.9753C12.5957 9.64231 16.7633 5.82149 20.5 2.5C21.3256 1.76616 21.3967 0 21.3967 0Z" fill="#82B479"/>
<path d="M21.5 4.61325L18.6132 7.5L21.5 10.3868L24.3868 7.5L21.5 4.61325ZM21.5 19.5H21V20.7071L21.8536 19.8536L21.5 19.5ZM28.0412 12.9588H23.9588V17.0412H28.0412V12.9588ZM10.9588 15.9588V20.0412H15.0412V15.9588H10.9588ZM34.0412 18.4588H29.9588V22.5412H34.0412V18.4588ZM21.5 37L21.1464 37.3536L22 38.2071V37H21.5ZM8.95876 24.4588V28.5412H13.0412V24.4588H8.95876ZM22 19.5V7.5H21V19.5H22ZM21.8536 19.8536L26.3536 15.3536L25.6464 14.6464L21.1464 19.1464L21.8536 19.8536ZM21 16.5V19.5H22V16.5H21ZM22 22.5V16.5H21V22.5H22ZM22 26.5V22.5H21V26.5H22ZM21.8536 26.1464L13.3536 17.6464L12.6464 18.3536L21.1464 26.8536L21.8536 26.1464ZM22 31V26.5H21V31H22ZM21.8536 31.3536L32.3536 20.8536L31.6464 20.1464L21.1464 30.6464L21.8536 31.3536ZM22 33.5V31H21V33.5H22ZM22 37V33.5H21V37H22ZM21.8536 36.6464L11.3536 26.1464L10.6464 26.8536L21.1464 37.3536L21.8536 36.6464Z" fill="white"/>
</svg>
